<?xml version="1.0" standalone="no"?>
<!DOCTYPE svg PUBLIC "-//W3C//DTD SVG 1.1//EN" "http://www.w3.org/Graphics/SVG/1.1/DTD/svg11.dtd" >
<svg xmlns="http://www.w3.org/2000/svg">
<metadata></metadata>
<defs>
<font id="kenzoregular" horiz-adv-x="420" >
<font-face units-per-em="1000" ascent="750" descent="-250" />
<missing-glyph horiz-adv-x="301" />
<glyph unicode="NEW" horiz-adv-x="1229" d="M29 87h1171v-87h-1171v87zM131 464v-287h-99v521h132l86 -287v289h100v-525h-132zM634 262v-87h-231v525h231v-88h-131v-116h94v-88h-94v-146h131zM907 175h-117l-101 526h101l54 -284q7 47 23.5 141.5t23.5 142.5h106l56 -287l45 287h101l-85 -526h-117l-49 254 q-2 -11 -17.5 -107t-23.5 -147z" />
<glyph unicode="IJ" d="M291 700h100v-525q0 -40 -22 -85q-45 -90 -159 -90t-159 90q-22 45 -22 85v44h99v-44q0 -13 5 -30.5t25 -37.5t52 -20t52 20t24.5 37.5t4.5 30.5v525zM128 700v-394h-99v394h99z" />
<glyph unicode="AND" horiz-adv-x="1123" d="M32 0v87h1062v-87h-1062zM525 464v-287h-99v521h132l87 -289v291h99v-525h-132zM1076 629q18 -35 18 -67v-247q0 -59 -38 -99.5t-99 -40.5h-159v523h148q93 0 130 -69zM995 315v248q0 8 -2 16.5t-14 20t-33 11.5h-49v-349h60q5 1 7 1t9.5 3.5t11 8t7 15.5t3.5 25z M148 262l-18 -85h-101l108 521h124l108 -521h-101l-18 85h-102zM199 510l-33 -160h66q-26 126 -33 160z" />
<glyph unicode="PM" horiz-adv-x="814" d="M29 87h756v-87h-756v87zM128 388v-213h-99v525h146q38 0 73 -20q73 -43 73 -136t-73 -136q-35 -20 -73 -20h-47zM128 612v-137h46q12 0 26 10q21 13 21 59q0 42 -21 59q-15 9 -26 9h-46zM457 378v-199h-100v521h122l87 -350l87 350h122v-521h-100v199q-5 -18 -23 -91 t-27 -110h-118z" />
<glyph unicode="AT" horiz-adv-x="673" d="M29 0v87h615v-87h-615zM357 700h287v-88h-88v-437h-111v437h-88v88zM179 262l-18 -85h-113l107 521h137l108 -521h-114l-17 85h-90zM224 481l-27 -131h54q-1 6 -4 20t-4 20z" />
<glyph unicode="AM" horiz-adv-x="879" d="M29 87h821v-87h-821v87zM167 262l-18 -85h-101l107 521h125l108 -521h-102l-17 85h-102zM218 510l-33 -160h66q-26 126 -33 160zM522 382v-203h-99v521h121l88 -349l87 349h122v-521h-100v203l-51 -205h-117z" />
<glyph unicode="OSMALL" horiz-adv-x="354" d="M29 87h296v-87h-296v87zM174 175q-90 0 -127 71q-18 35 -18 66v250q0 29 19 67q36 71 126 71q92 0 127 -71q18 -36 18 -67v-250q0 -30 -18 -66q-35 -71 -127 -71zM128 562v-249v-1q1 -2 1 -3q3 -18 7 -25q11 -22 38 -22t38 22q7 13 7 29v249q0 16 -7 29q-10 21 -38 21 t-38 -21q-4 -7 -7 -25q0 -1 -1 -2v-2z" />
<glyph unicode=" "  horiz-adv-x="301" />
<glyph unicode="&#x09;" horiz-adv-x="301" />
<glyph unicode="&#xa0;" horiz-adv-x="301" />
<glyph unicode="!" horiz-adv-x="157" d="M107 175h-78v525h78v-525zM69 88q19 0 32 -13t13 -31t-13 -31t-32 -13q-18 0 -31.5 13t-13.5 31t13.5 31t31.5 13z" />
<glyph unicode="&#x22;" horiz-adv-x="300" d="M45 700h105l-53 -142h-68zM166 700h105l-53 -142h-68z" />
<glyph unicode="#" horiz-adv-x="474" d="M384 554l-7 -138h68l-7 -69h-65l-10 -155h62l-5 -69h-61l-7 -123h-81l7 123h-91q-1 -20 -4 -62t-4 -61h-80l7 123h-77l4 69h77l9 155h-73l5 69h72q1 22 4 69t4 69h81l-8 -138h92q1 22 4 69t4 69h80zM282 192l10 155h-92l-9 -155h91z" />
<glyph unicode="$" d="M391 481h-100v44q0 5 -1.5 15.5t-9 28.5t-20.5 29v-218q36 -16 63 -39t39.5 -41.5t19.5 -39t8 -28.5t1 -13v-44q0 -40 -22 -85q-35 -67 -109 -86v-46h-100v46q-74 20 -108 86q-23 45 -23 85v44h99v-44q0 -4 2 -15t10 -29t20 -29v218q-36 16 -63 39t-39.5 41.5t-19.5 39 t-8 28.5t-1 13v44q0 41 22 85q35 69 109 85v47h100v-47q75 -18 109 -85q22 -45 22 -85v-44zM128 482q0 -29 32 -55v171q-12 -11 -20 -29t-10 -28.5t-2 -15.5v-43zM291 218q0 2 -2.5 10t-10.5 21.5t-18 23.5v-171q13 11 20.5 29t9 28.5t1.5 15.5v43z" />
<glyph unicode="%" horiz-adv-x="679" d="M238 0h-106l309 700h105zM508 2q82 0 116 77q14 31 14 69v34q0 39 -14 70q-34 77 -116 77q-81 0 -115 -77q-15 -33 -15 -70v-34q0 -36 15 -69q34 -77 115 -77zM454 148v34q0 17 9 36q11 24 45 24t51 -33q4 -9 4 -27v-34q0 -14 -9 -35q-13 -24 -46 -24q-34 0 -45 24 q-9 18 -9 35zM171 373q81 0 115 77q15 35 15 69v34q0 33 -14 70q-35 77 -116 77q-80 0 -115 -77q-15 -33 -15 -70v-34q0 -32 14 -69q39 -77 116 -77zM116 519v34q0 15 10 36q11 24 45 24t45 -24q10 -21 10 -36v-34q0 -15 -10 -35q-11 -24 -45 -24t-45 24q-10 20 -10 35z" />
<glyph unicode="&#x26;" horiz-adv-x="548" d="M519 437v-87h-43v-133q0 -90 -66 -153.5t-158 -63.5t-157.5 63.5t-65.5 153.5q0 111 97 180q-56 54 -56 127t53.5 124.5t128.5 51.5q76 0 129.5 -51.5t53.5 -124.5h-100q0 37 -24 62.5t-59 25.5t-59 -25.5t-24 -62.5t26 -63t63 -26v-88q-53 0 -91.5 -38t-38.5 -92 q0 -53 36.5 -91.5t87.5 -38.5q52 0 88 38.5t36 91.5v133h-44v87h187z" />
<glyph unicode="'" horiz-adv-x="179" d="M45 700h105l-53 -142h-68z" />
<glyph unicode="(" horiz-adv-x="245" d="M216 87v-87q-120 0 -165 90q-22 45 -22 85v350q0 40 22 85q45 90 165 90v-88q-34 0 -56 -20t-27 -37t-5 -30v-350q0 -13 5 -30.5t27 -37.5t56 -20z" />
<glyph unicode=")" horiz-adv-x="245" d="M29 612v88q120 0 165 -90q22 -45 22 -85v-350q0 -40 -22 -85q-45 -90 -165 -90v87q26 0 45 11t27 27.5t11.5 28.5t3.5 21v350q0 13 -5 30.5t-26.5 37t-55.5 19.5z" />
<glyph unicode="*" horiz-adv-x="361" d="M301 651l30 -60l-96 -49q11 -14 35 -40.5t36 -39.5l-55 -47l-71 82l-71 -82l-53 47l72 80l-98 49l30 60l83 -42v91h76v-91q10 5 39 20t43 22z" />
<glyph unicode="+" d="M391 394v-88h-131v-131h-100v131h-131v88h131v131h100v-131h131z" />
<glyph unicode="," horiz-adv-x="181" d="M72 51h79l-71 -127l-51 3z" />
<glyph unicode="-" d="M391 394v-88h-362v88h362z" />
<glyph unicode="." horiz-adv-x="157" d="M74 88q19 0 32 -13t13 -31t-13 -31t-32 -13q-18 0 -31.5 13t-13.5 31t13.5 31t31.5 13z" />
<glyph unicode="/" horiz-adv-x="367" d="M235 700h103l-206 -700h-103z" />
<glyph unicode="0" horiz-adv-x="376" d="M188 0q-103 0 -142 93q-17 39 -17 82v350q0 43 17 82q39 93 142 93q102 0 142 -93q17 -41 17 -82v-350q0 -43 -17 -82q-40 -93 -142 -93zM188 612q-33 0 -49 -38q-4 -11 -7 -23t-4 -19v-7v-354q0 -23 14.5 -53.5t45.5 -30.5q33 0 49 39q4 11 7 23t4 19v7v350 q0 33 -16.5 60t-43.5 27z" />
<glyph unicode="1" horiz-adv-x="279" d="M131 700h119v-700h-99v572l-47 -56l-74 58z" />
<glyph unicode="2" horiz-adv-x="376" d="M347 87v-87h-318v87q0 7 1 17t7.5 38t18.5 56t37 66t60 73q77 77 95 154v43q0 10 -3 25t-17.5 34t-39.5 19t-39.5 -19t-17.5 -34t-3 -25v-40h-99v40q0 39 18 79q40 87 141 87q102 0 141 -87q18 -40 18 -79v-40q0 -6 -1 -15t-8 -31.5t-19 -46t-37 -58t-59 -68.5 q-30 -30 -52.5 -61t-32.5 -51.5t-15.5 -40t-6 -25.5t-0.5 -10h231z" />
<glyph unicode="3" horiz-adv-x="376" d="M347 494q0 -8 -2.5 -24.5t-14.5 -47t-32 -51.5q20 -23 32 -55.5t14.5 -49.5t2.5 -25v-66q0 -41 -17 -82q-40 -93 -142 -93q-103 0 -142 93q-17 39 -17 82v66h99v-70q0 -23 14.5 -53.5t45.5 -30.5q27 0 43.5 27.5t16.5 60.5v69q0 12 -4 29t-19 36t-37 19h-50v88h50 q31 0 45.5 27.5t14.5 50.5v40q0 10 -3 25t-17.5 34t-39.5 19q-18 0 -31.5 -10t-19 -25t-7.5 -25.5t-2 -17.5v-40h-99v40q0 39 18 79q40 87 141 87q102 0 141 -87q18 -40 18 -79v-40z" />
<glyph unicode="4" horiz-adv-x="376" d="M303 284h44v-87h-44v-197h-99v197h-175v95l144 408h130v-416zM204 284v206q-59 -166 -73 -206h73z" />
<glyph unicode="5" horiz-adv-x="376" d="M330 323q17 -40 17 -82v-66q0 -41 -17 -82q-40 -93 -142 -93q-103 0 -142 93q-17 39 -17 82v66h99v-70q0 -23 14.5 -53.5t45.5 -30.5q33 0 49 39q4 11 7 23t4 19v7v69q0 22 -14 53t-45 31q-25 0 -75 -3.5t-63 -4.5v380h252v-88h-153v-198l38 2q103 0 142 -93z" />
<glyph unicode="6" horiz-adv-x="376" d="M46 93q-17 39 -17 82v350q0 43 17 82q39 93 142 93q102 0 142 -93q17 -39 17 -79h-99q0 12 -4 29t-18.5 36t-37.5 19q-22 0 -37 -18t-19.5 -35.5t-4.5 -29.5l1 -6v-118q27 11 60 11q103 0 142 -93q17 -40 17 -82v-66q0 -41 -17 -82q-40 -93 -142 -93q-103 0 -142 93z M128 240v-69q0 -23 14.5 -53.5t45.5 -30.5q27 0 43.5 27.5t16.5 60.5v69q0 12 -4 29t-19 36t-37 19q-19 0 -32.5 -12t-18.5 -29.5t-7 -29t-2 -17.5z" />
<glyph unicode="7" horiz-adv-x="385" d="M29 0l225 612h-216v88h318v-95l-222 -605h-105z" />
<glyph unicode="8" horiz-adv-x="376" d="M347 494q0 -8 -2.5 -24.5t-14.5 -47t-32 -51.5q20 -23 32 -55.5t14.5 -49.5t2.5 -25v-66q0 -41 -17 -82q-40 -93 -142 -93q-103 0 -142 93q-17 39 -17 82v66q0 8 2.5 25t14.5 49.5t32 55.5q-20 21 -32 52t-14.5 46.5t-2.5 24.5v40q0 39 18 79q40 87 141 87q102 0 141 -87 q18 -40 18 -79v-40zM128 534v-40q0 -6 2 -16t7 -25.5t18.5 -26t32.5 -10.5q31 0 45.5 27.5t14.5 50.5v40q0 10 -3 25t-17.5 34t-39.5 19q-18 0 -31.5 -10t-19 -25t-7.5 -25.5t-2 -17.5zM248 175v69q0 12 -4 29t-19 36t-37 19q-19 0 -32.5 -12t-18.5 -29.5t-7 -29t-2 -17.5 v-69q0 -23 14.5 -53.5t45.5 -30.5q27 0 43.5 27.5t16.5 60.5z" />
<glyph unicode="9" horiz-adv-x="376" d="M330 607q17 -39 17 -82v-350q0 -41 -17 -82q-40 -93 -142 -93q-103 0 -142 93q-17 39 -17 82h99v-4q0 -23 14.5 -53.5t45.5 -30.5q27 0 43.5 27.5t16.5 60.5v120q-27 -11 -60 -11q-103 0 -142 93q-17 40 -17 82v66q0 43 17 82q39 93 142 93t142 -93zM248 460v68 q0 12 -4 29t-18.5 36t-37.5 19q-22 0 -37 -18t-19.5 -35.5t-4.5 -29.5l1 -6v-68q0 -23 15 -53t45 -30q19 0 32.5 12t18.5 29.5t7 29t2 17.5z" />
<glyph unicode=":" horiz-adv-x="157" d="M74 88q19 0 32 -13t13 -31t-13 -31t-32 -13q-18 0 -31.5 13t-13.5 31t13.5 31t31.5 13zM74 394q19 0 32 -13t13 -31t-13 -31t-32 -13q-18 0 -31.5 13t-13.5 31t13.5 31t31.5 13z" />
<glyph unicode=";" horiz-adv-x="181" d="M72 51h79l-71 -127l-51 3zM74 394q19 0 32 -13t13 -31t-13 -31t-32 -13q-18 0 -31.5 13t-13.5 31t13.5 31t31.5 13z" />
<glyph unicode="&#x3c;" horiz-adv-x="336" d="M305 518l-148 -168q24 -28 74.5 -83.5t74.5 -83.5l-70 -63l-205 230l205 230z" />
<glyph unicode="=" horiz-adv-x="464" d="M29 503h406v-87h-406v87zM29 197v87h406v-87h-406z" />
<glyph unicode="&#x3e;" horiz-adv-x="336" d="M30 517l70 63l205 -230l-205 -230l-70 63l149 167q-24 28 -74.5 84t-74.5 83z" />
<glyph unicode="?" horiz-adv-x="376" d="M329 613q18 -40 18 -79v-40q0 -73 -58 -131q-22 -22 -35 -52.5t-14 -50.5l-2 -19v-66h-100v66q0 13 2.5 33t22.5 67.5t56 83.5q29 29 29 69v40q0 6 -2 16t-7 25.5t-18.5 26t-32.5 10.5q-25 0 -39.5 -19.5t-17.5 -34.5t-3 -24v-40h-99v40q0 39 18 79q40 87 141 87 q102 0 141 -87zM181 88q19 0 32 -13t13 -31t-13 -31t-32 -13q-18 0 -31.5 13t-13.5 31t13.5 31t31.5 13z" />
<glyph unicode="@" horiz-adv-x="770" d="M385 700q147 0 251.5 -102.5t104.5 -247.5t-104.5 -247.5t-251.5 -102.5t-251.5 102.5t-104.5 247.5t104.5 247.5t251.5 102.5zM385 87q106 0 181 77t75 186t-75 185.5t-181 76.5q-107 0 -182 -76.5t-75 -185.5t75.5 -186t181.5 -77zM445 505v20h99v-350h-99v19 q-37 -19 -82 -19q-74 0 -127.5 51t-53.5 124q0 72 53.5 123.5t127.5 51.5q44 0 82 -20zM363 262q34 0 58 26t24 62t-24 61.5t-58 25.5t-57.5 -25.5t-23.5 -61.5t23.5 -62t57.5 -26z" />
<glyph unicode="A" horiz-adv-x="500" d="M370 0l-47 219h-146l-47 -219h-101l150 700h142l150 -700h-101zM196 306h108l-54 251q-16 -72 -54 -251z" />
<glyph unicode="B" d="M210 0h-181v700h162q8 0 20.5 -1.5t43 -12t53.5 -29t42 -59t19 -95.5q0 -85 -53 -144q75 -56 75 -162q0 -55 -19.5 -95.5t-43 -59t-54.5 -29.5t-43.5 -12t-20.5 -1zM128 306v-219h79l2 1h4q26 4 40 14q38 23 38 95q0 71 -40 96q-9 5 -19.5 8t-15.5 4l-6 1h-82zM128 612 v-218h63q26 0 52.5 27t26.5 82t-26.5 82t-52.5 27h-63z" />
<glyph unicode="C" d="M210 0q-114 0 -159 90q-22 45 -22 85v350q0 40 22 85q45 90 159 90t159 -90q22 -45 22 -85v-44h-100v44q0 13 -4.5 30.5t-24.5 37t-52 19.5q-25 0 -42.5 -11t-25.5 -27.5t-11 -28.5t-3 -20v-350q0 -13 5 -30.5t25 -37.5t52 -20t52 20t24.5 37.5t4.5 30.5v44h100v-44 q0 -40 -22 -85q-45 -90 -159 -90z" />
<glyph unicode="D" d="M210 0h-181v700h181q114 0 159 -90q22 -45 22 -85v-350q0 -107 -93 -154q-43 -21 -88 -21zM128 612v-525h78q37 0 61 26t24 62v350q0 13 -4.5 30.5t-24.5 37t-52 19.5h-82z" />
<glyph unicode="E" horiz-adv-x="376" d="M347 612h-219v-218h163v-88h-163v-219h219v-87h-318v700h318v-88z" />
<glyph unicode="F" horiz-adv-x="376" d="M347 612h-219v-218h163v-88h-163v-306h-99v700h318v-88z" />
<glyph unicode="G" d="M210 0q-114 0 -159 90q-22 45 -22 85v350q0 40 22 85q45 90 159 90t159 -90q22 -45 22 -85v-44h-100v44q0 13 -4.5 30.5t-24.5 37t-52 19.5q-25 0 -42.5 -11t-25.5 -27.5t-11 -28.5t-3 -20v-350q0 -13 5 -30.5t25 -37.5t52 -20t52 20t24.5 37.5t4.5 30.5v131h-65v88h165 v-219q0 -40 -22 -85q-45 -90 -159 -90z" />
<glyph unicode="H" d="M291 700h100v-700h-100v306h-163v-306h-99v700h99v-306h163v306z" />
<glyph unicode="I" horiz-adv-x="157" d="M29 700h99v-700h-99v700z" />
<glyph unicode="J" d="M291 700h100v-525q0 -40 -22 -85q-45 -90 -159 -90t-159 90q-22 45 -22 85v44h99v-44q0 -13 5 -30.5t25 -37.5t52 -20t52 20t24.5 37.5t4.5 30.5v525z" />
<glyph unicode="K" horiz-adv-x="458" d="M128 206v-206h-99v700h99v-311l184 311h116l-206 -350q34 -58 103 -175.5t103 -174.5h-112l-153 261q-4 -7 -16.5 -26t-18.5 -29z" />
<glyph unicode="L" horiz-adv-x="332" d="M128 87h175v-87h-274v700h99v-613z" />
<glyph unicode="M" horiz-adv-x="595" d="M432 700h134v-700h-100v428q-12 -48 -34 -135t-39.5 -158t-33.5 -135h-124l-107 428v-428h-99v700h134l134 -539z" />
<glyph unicode="N" d="M391 700v-700h-121l-142 440v-440h-99v700h120l142 -440v440h100z" />
<glyph unicode="O" d="M210 0q-114 0 -159 90q-22 45 -22 85v350q0 40 22 85q45 90 159 90t159 -90q22 -45 22 -85v-350q0 -40 -22 -85q-45 -90 -159 -90zM128 525v-350q0 -13 5 -30.5t25 -37.5t52 -20t52 20t24.5 37.5t4.5 30.5v350q0 13 -4.5 30.5t-24.5 37t-52 19.5q-25 0 -42.5 -11 t-25.5 -27.5t-11 -28.5t-3 -20z" />
<glyph unicode="P" d="M301 675q90 -54 90 -172q0 -40 -10 -72.5t-25 -52.5t-35.5 -34.5t-37.5 -21.5t-35.5 -11t-26 -4.5t-11.5 -0.5h-82v-306h-99v700h181q47 0 91 -25zM253 408q38 23 38 95t-40 96q-10 6 -20 9t-15 4h-6h-82v-218h82q19 0 43 14z" />
<glyph unicode="Q" d="M369 610q22 -45 22 -85v-350q0 -40 -22 -85q-35 -68 -114 -86h5v-75h-100v75h5q-79 19 -113 86q-23 45 -23 85v350q0 40 22 85q45 90 159 90t159 -90zM291 175v350q0 13 -4.5 30.5t-24.5 37t-52 19.5q-25 0 -42.5 -11t-25.5 -27.5t-11 -28.5t-3 -20v-350q0 -4 2 -15 t10 -29t20 -29v68h100v-68q13 11 20.5 29t9 28.5t1.5 15.5z" />
<glyph unicode="R" d="M330 352q61 -50 61 -133v-219h-100v219q0 31 -25 59t-56 28h-82v-306h-99v700h181q8 0 20.5 -1t43.5 -12t54.5 -29.5t43 -59t19.5 -95.5q0 -94 -61 -151zM210 394q26 0 53.5 26.5t27.5 82.5q0 72 -40 96q-10 6 -20 9t-15 4h-6h-82v-218h82z" />
<glyph unicode="S" d="M391 481h-100v44q0 13 -4.5 30.5t-24.5 37t-52 19.5q-25 0 -42.5 -11t-25.5 -27.5t-11 -28.5t-3 -20v-44q1 -9 6 -21t29 -34t63 -35q46 -15 79.5 -38.5t49 -44t25 -43t10.5 -31.5t1 -15v-44q0 -40 -22 -85q-45 -90 -159 -90t-159 90q-22 45 -22 85v44h99v-44 q0 -13 5 -30.5t25 -37.5t52 -20t52 20t24.5 37.5t4.5 30.5v43q0 6 -5 18.5t-29 35t-63 36.5q-44 15 -77 38.5t-49 44.5t-25.5 43t-11.5 32t-2 15v44q0 40 22 85q45 90 159 90t159 -90q22 -45 22 -85v-44z" />
<glyph unicode="T" d="M391 700v-88h-131v-612h-100v612h-131v88h362z" />
<glyph unicode="U" d="M210 0q-114 0 -159 90q-22 45 -22 85v525h99v-525q0 -13 5 -30.5t25 -37.5t52 -20t52 20t24.5 37.5t4.5 30.5v525h100v-525q0 -40 -22 -85q-45 -90 -159 -90z" />
<glyph unicode="V" horiz-adv-x="500" d="M370 700h101l-150 -700h-142l-150 700h101l120 -556z" />
<glyph unicode="W" horiz-adv-x="720" d="M590 700h101l-113 -700h-129l-84 435q-11 -73 -35.5 -217.5t-35.5 -217.5h-130l-135 700h101l95 -495q9 55 25.5 156t30 183.5t25.5 155.5h108l96 -494q13 83 40 247t40 247z" />
<glyph unicode="X" horiz-adv-x="453" d="M424 700l-144 -350l144 -350h-107l-91 220l-90 -220h-107l144 350l-144 350h107l90 -220q15 37 45.5 110t45.5 110h107z" />
<glyph unicode="Y" horiz-adv-x="453" d="M317 700h107l-148 -359v-341h-99v341l-148 359h107l90 -220q15 37 45.5 110t45.5 110z" />
<glyph unicode="Z" d="M391 700v-96l-258 -517h258v-87h-362v96l258 516h-258v88h362z" />
<glyph unicode="[" horiz-adv-x="245" d="M216 612h-88v-525h88v-87h-187v700h187v-88z" />
<glyph unicode="\" horiz-adv-x="367" d="M29 700h103l206 -700h-103z" />
<glyph unicode="]" horiz-adv-x="245" d="M29 87h87v525h-87v88h187v-700h-187v87z" />
<glyph unicode="^" horiz-adv-x="433" d="M30 536l187 159l186 -159l-61 -70l-125 108l-126 -108z" />
<glyph unicode="_" d="M391 88v-88h-362v88h362z" />
<glyph unicode="a" horiz-adv-x="500" d="M370 0l-47 219h-146l-47 -219h-101l150 700h142l150 -700h-101zM196 306h108l-54 251q-16 -72 -54 -251z" />
<glyph unicode="b" d="M210 0h-181v700h162q8 0 20.5 -1.5t43 -12t53.5 -29t42 -59t19 -95.5q0 -85 -53 -144q75 -56 75 -162q0 -55 -19.5 -95.5t-43 -59t-54.5 -29.5t-43.5 -12t-20.5 -1zM128 306v-219h79l2 1h4q26 4 40 14q38 23 38 95q0 71 -40 96q-9 5 -19.5 8t-15.5 4l-6 1h-82zM128 612 v-218h63q26 0 52.5 27t26.5 82t-26.5 82t-52.5 27h-63z" />
<glyph unicode="c" d="M210 0q-114 0 -159 90q-22 45 -22 85v350q0 40 22 85q45 90 159 90t159 -90q22 -45 22 -85v-44h-100v44q0 13 -4.5 30.5t-24.5 37t-52 19.5q-25 0 -42.5 -11t-25.5 -27.5t-11 -28.5t-3 -20v-350q0 -13 5 -30.5t25 -37.5t52 -20t52 20t24.5 37.5t4.5 30.5v44h100v-44 q0 -40 -22 -85q-45 -90 -159 -90z" />
<glyph unicode="d" d="M210 0h-181v700h181q114 0 159 -90q22 -45 22 -85v-350q0 -107 -93 -154q-43 -21 -88 -21zM128 612v-525h78q37 0 61 26t24 62v350q0 13 -4.5 30.5t-24.5 37t-52 19.5h-82z" />
<glyph unicode="e" horiz-adv-x="376" d="M347 612h-219v-218h163v-88h-163v-219h219v-87h-318v700h318v-88z" />
<glyph unicode="f" horiz-adv-x="376" d="M347 612h-219v-218h163v-88h-163v-306h-99v700h318v-88z" />
<glyph unicode="g" d="M210 0q-114 0 -159 90q-22 45 -22 85v350q0 40 22 85q45 90 159 90t159 -90q22 -45 22 -85v-44h-100v44q0 13 -4.5 30.5t-24.5 37t-52 19.5q-25 0 -42.5 -11t-25.5 -27.5t-11 -28.5t-3 -20v-350q0 -13 5 -30.5t25 -37.5t52 -20t52 20t24.5 37.5t4.5 30.5v131h-65v88h165 v-219q0 -40 -22 -85q-45 -90 -159 -90z" />
<glyph unicode="h" d="M291 700h100v-700h-100v306h-163v-306h-99v700h99v-306h163v306z" />
<glyph unicode="i" horiz-adv-x="157" d="M29 700h99v-700h-99v700z" />
<glyph unicode="j" d="M291 700h100v-525q0 -40 -22 -85q-45 -90 -159 -90t-159 90q-22 45 -22 85v44h99v-44q0 -13 5 -30.5t25 -37.5t52 -20t52 20t24.5 37.5t4.5 30.5v525z" />
<glyph unicode="k" horiz-adv-x="458" d="M128 206v-206h-99v700h99v-311l184 311h116l-206 -350q34 -58 103 -175.5t103 -174.5h-112l-153 261q-4 -7 -16.5 -26t-18.5 -29z" />
<glyph unicode="l" horiz-adv-x="332" d="M128 87h175v-87h-274v700h99v-613z" />
<glyph unicode="m" horiz-adv-x="595" d="M432 700h134v-700h-100v428q-12 -48 -34 -135t-39.5 -158t-33.5 -135h-124l-107 428v-428h-99v700h134l134 -539z" />
<glyph unicode="n" d="M391 700v-700h-121l-142 440v-440h-99v700h120l142 -440v440h100z" />
<glyph unicode="o" d="M210 0q-114 0 -159 90q-22 45 -22 85v350q0 40 22 85q45 90 159 90t159 -90q22 -45 22 -85v-350q0 -40 -22 -85q-45 -90 -159 -90zM128 525v-350q0 -13 5 -30.5t25 -37.5t52 -20t52 20t24.5 37.5t4.5 30.5v350q0 13 -4.5 30.5t-24.5 37t-52 19.5q-25 0 -42.5 -11 t-25.5 -27.5t-11 -28.5t-3 -20z" />
<glyph unicode="p" d="M301 675q90 -54 90 -172q0 -40 -10 -72.5t-25 -52.5t-35.5 -34.5t-37.5 -21.5t-35.5 -11t-26 -4.5t-11.5 -0.5h-82v-306h-99v700h181q47 0 91 -25zM253 408q38 23 38 95t-40 96q-10 6 -20 9t-15 4h-6h-82v-218h82q19 0 43 14z" />
<glyph unicode="q" d="M369 610q22 -45 22 -85v-350q0 -40 -22 -85q-35 -68 -114 -86h5v-75h-100v75h5q-79 19 -113 86q-23 45 -23 85v350q0 40 22 85q45 90 159 90t159 -90zM291 175v350q0 13 -4.5 30.5t-24.5 37t-52 19.5q-25 0 -42.5 -11t-25.5 -27.5t-11 -28.5t-3 -20v-350q0 -4 2 -15 t10 -29t20 -29v68h100v-68q13 11 20.5 29t9 28.5t1.5 15.5z" />
<glyph unicode="r" d="M330 352q61 -50 61 -133v-219h-100v219q0 31 -25 59t-56 28h-82v-306h-99v700h181q8 0 20.5 -1t43.5 -12t54.5 -29.5t43 -59t19.5 -95.5q0 -94 -61 -151zM210 394q26 0 53.5 26.5t27.5 82.5q0 72 -40 96q-10 6 -20 9t-15 4h-6h-82v-218h82z" />
<glyph unicode="s" d="M335 481h-100v44q0 13 -4.5 30.5t-24.5 37t-52 19.5q-25 0 -42.5 -11t-25.5 -27.5t-11 -28.5t-3 -20v-44q1 -9 6 -21t29 -34t63 -35q46 -15 79.5 -38.5t49 -44t25 -43t10.5 -31.5t1 -15v-44q0 -40 -22 -85q-45 -90 -159 -90t-159 90q-22 45 -22 85v44h99v-44 q0 -13 5 -30.5t25 -37.5t52 -20t52 20t24.5 37.5t4.5 30.5v43q0 6 -5 18.5t-29 35t-63 36.5q-44 15 -77 38.5t-49 44.5t-25.5 43t-11.5 32t-2 15v44q0 40 22 85q45 90 159 90t159 -90q22 -45 22 -85v-44z" />
<glyph unicode="t" d="M391 700v-88h-131v-612h-100v612h-131v88h362z" />
<glyph unicode="u" d="M210 0q-114 0 -159 90q-22 45 -22 85v525h99v-525q0 -13 5 -30.5t25 -37.5t52 -20t52 20t24.5 37.5t4.5 30.5v525h100v-525q0 -40 -22 -85q-45 -90 -159 -90z" />
<glyph unicode="v" horiz-adv-x="500" d="M370 700h101l-150 -700h-142l-150 700h101l120 -556z" />
<glyph unicode="w" horiz-adv-x="720" d="M590 700h101l-113 -700h-129l-84 435q-11 -73 -35.5 -217.5t-35.5 -217.5h-130l-135 700h101l95 -495q9 55 25.5 156t30 183.5t25.5 155.5h108l96 -494q13 83 40 247t40 247z" />
<glyph unicode="x" horiz-adv-x="453" d="M424 700l-144 -350l144 -350h-107l-91 220l-90 -220h-107l144 350l-144 350h107l90 -220q15 37 45.5 110t45.5 110h107z" />
<glyph unicode="y" horiz-adv-x="453" d="M317 700h107l-148 -359v-341h-99v341l-148 359h107l90 -220q15 37 45.5 110t45.5 110z" />
<glyph unicode="z" d="M391 700v-96l-258 -517h258v-87h-362v96l258 516h-258v88h362z" />
<glyph unicode="{" horiz-adv-x="314" d="M197 175q0 -54 37 -75q10 -5 23 -8.5t21 -3.5l7 -1v-87q-51 0 -94 21q-93 47 -93 154q0 109 -29 144l-38 33l37 29q30 38 30 144q0 107 93 154q43 21 94 21l-3 -88q-25 0 -48 -12q-37 -22 -37 -75q0 -107 -36 -175q36 -68 36 -175z" />
<glyph unicode="|" horiz-adv-x="157" d="M29 750h99v-804h-99v804z" />
<glyph unicode="}" horiz-adv-x="314" d="M117 175q0 107 36 175q-36 68 -36 175q0 54 -37 75q-10 5 -23 8t-21 4h-7v88q51 0 94 -21q93 -47 93 -154q0 -106 30 -144l37 -29l-38 -33q-29 -35 -29 -144q0 -107 -93 -154q-43 -21 -94 -21l3 87q25 1 48 13q37 22 37 75z" />
<glyph unicode="&#xa1;" horiz-adv-x="157" d="M79 613q-20 0 -35 12.5t-15 30.5t15 31t35 13t34.5 -13t14.5 -31t-14.5 -30.5t-34.5 -12.5zM29 501l24 24h54v-501l-26 -26l-52 25v478z" />
<glyph unicode="&#xba;" horiz-adv-x="313" d="M269 631q15 -32 15 -62v-33q0 -29 -15 -62q-32 -69 -113 -69q-80 0 -112 69q-15 33 -15 62v33q0 29 15 62q32 69 112 69q82 0 113 -69zM203 536v32l-1 2v3q-3 26 -7 31q-13 27 -39 27t-38 -28l-8 -34v-32q0 -20 8 -36q14 -27 38 -27q27 0 39 28z" />
<glyph unicode="&#xbf;" horiz-adv-x="376" d="M47 87q-18 40 -18 79v40q0 73 58 131q22 22 35 52.5t14 50.5l2 19v66h100v-66q0 -13 -2.5 -33t-22.5 -67.5t-56 -83.5q-29 -29 -29 -69v-40q0 -6 2 -16t7 -25.5t18.5 -26t32.5 -10.5q25 0 39.5 19.5t17.5 34.5t3 24v40h99v-40q0 -39 -18 -79q-40 -87 -141 -87 q-102 0 -141 87zM188 613q-20 0 -35 12.5t-15 30.5t15 31t35 13t35 -13t15 -31t-15 -30.5t-35 -12.5z" />
<glyph unicode="&#xc0;" horiz-adv-x="500" d="M348 769l-209 47l17 74l202 -70zM370 0l-47 219h-146l-47 -219h-101l150 700h142l150 -700h-101zM196 306h108l-54 251q-16 -72 -54 -251z" />
<glyph unicode="&#xc1;" horiz-adv-x="500" d="M361 816l-209 -46l-10 50l202 70zM370 0l-47 219h-146l-47 -219h-101l150 700h142l150 -700h-101zM196 306h108l-54 251q-16 -72 -54 -251z" />
<glyph unicode="&#xc2;" horiz-adv-x="500" d="M130 815l119 88l118 -88l-55 -74l-63 47l-64 -47zM370 0l-47 219h-146l-47 -219h-101l150 700h142l150 -700h-101zM196 306h108l-54 251q-16 -72 -54 -251z" />
<glyph unicode="&#xc4;" horiz-adv-x="500" d="M234 806q0 -18 -15 -31t-35 -13t-35 13t-15 31t15 31t35 13t35 -13t15 -31zM365 806q0 -18 -14.5 -31t-35.5 -13q-20 0 -34.5 13t-14.5 31t14.5 31t34.5 13q21 0 35.5 -13t14.5 -31zM370 0l-47 219h-146l-47 -219h-101l150 700h142l150 -700h-101zM196 306h108l-54 251 q-16 -72 -54 -251z" />
<glyph unicode="&#xc8;" horiz-adv-x="376" d="M286 820l-10 -50l-209 46l17 74zM347 612h-219v-218h163v-88h-163v-219h219v-87h-318v700h318v-88z" />
<glyph unicode="&#xc9;" horiz-adv-x="376" d="M286 816l-209 -46l-10 50l202 70zM347 612h-219v-218h163v-88h-163v-219h219v-87h-318v700h318v-88z" />
<glyph unicode="&#xca;" horiz-adv-x="376" d="M64 815l119 88l118 -88l-55 -74l-63 47l-64 -47zM347 612h-219v-218h163v-88h-163v-219h219v-87h-318v700h318v-88z" />
<glyph unicode="&#xcb;" horiz-adv-x="376" d="M170 806q0 -18 -15 -31t-35 -13t-35 13t-15 31t15 31t35 13t35 -13t15 -31zM301 806q0 -18 -14.5 -31t-35.5 -13q-20 0 -34.5 13t-14.5 31t14.5 31t34.5 13q21 0 35.5 -13t14.5 -31zM347 612h-219v-218h163v-88h-163v-219h219v-87h-318v700h318v-88z" />
<glyph unicode="&#xcc;" horiz-adv-x="219" d="M209 769l-209 47l17 74l202 -70zM54 700h99v-700h-99v700z" />
<glyph unicode="&#xcd;" horiz-adv-x="219" d="M219 816l-209 -46l-10 50l202 70zM54 700h99v-700h-99v700z" />
<glyph unicode="&#xce;" horiz-adv-x="247" d="M5 815l119 88l118 -88l-55 -74l-63 47l-64 -47zM72 700h99v-700h-99v700z" />
<glyph unicode="&#xcf;" horiz-adv-x="241" d="M105 806q0 -18 -15 -31t-35 -13t-35 13t-15 31t15 31t35 13t35 -13t15 -31zM236 806q0 -18 -14.5 -31t-35.5 -13q-20 0 -34.5 13t-14.5 31t14.5 31t34.5 13q21 0 35.5 -13t14.5 -31zM71 700h99v-700h-99v700z" />
<glyph unicode="&#xd0;" horiz-adv-x="486" d="M435 610q22 -45 22 -85v-350q0 -107 -93 -154q-43 -21 -88 -21h-181v306h-66v88h66v306h181q114 0 159 -90zM357 175v350q0 26 -12 48q-20 39 -69 39h-82v-218h66v-88h-66v-219h78q28 0 46 8t26 22.5t10.5 27.5t2.5 30z" />
<glyph unicode="&#xd2;" d="M210 0q-114 0 -159 90q-22 45 -22 85v350q0 40 22 85q45 90 159 90t159 -90q22 -45 22 -85v-350q0 -40 -22 -85q-45 -90 -159 -90zM292 175v350q0 8 -3 20t-11 28.5t-25.5 27.5t-42.5 11q-32 0 -52 -19.5t-24.5 -37t-4.5 -30.5v-350q0 -13 4.5 -30.5t24.5 -37.5t52 -20 t52 20t25 38t5 30zM308 769l-209 47l17 74l202 -70z" />
<glyph unicode="&#xd3;" d="M210 0q-114 0 -159 90q-22 45 -22 85v350q0 40 22 85q45 90 159 90t159 -90q22 -45 22 -85v-350q0 -40 -22 -85q-45 -90 -159 -90zM128 525v-350q0 -13 5 -30.5t25 -37.5t52 -20t52 20t24.5 37.5t4.5 30.5v350q0 13 -4.5 30.5t-24.5 37t-52 19.5q-25 0 -42.5 -11 t-25.5 -27.5t-11 -28.5t-3 -20zM321 816l-209 -46l-10 50l202 70z" />
<glyph unicode="&#xd4;" d="M210 0q-114 0 -159 90q-22 45 -22 85v350q0 40 22 85q45 90 159 90t159 -90q22 -45 22 -85v-350q0 -40 -22 -85q-45 -90 -159 -90zM128 525v-350q0 -13 5 -30.5t25 -37.5t52 -20t52 20t24.5 37.5t4.5 30.5v350q0 13 -4.5 30.5t-24.5 37t-52 19.5q-25 0 -42.5 -11 t-25.5 -27.5t-11 -28.5t-3 -20zM91 815l119 88l118 -88l-55 -74l-63 47l-64 -47z" />
<glyph unicode="&#xd6;" d="M210 0q-114 0 -159 90q-22 45 -22 85v350q0 40 22 85q45 90 159 90t159 -90q22 -45 22 -85v-350q0 -40 -22 -85q-45 -90 -159 -90zM128 525v-350q0 -13 5 -30.5t25 -37.5t52 -20t52 20t24.5 37.5t4.5 30.5v350q0 13 -4.5 30.5t-24.5 37t-52 19.5q-25 0 -42.5 -11 t-25.5 -27.5t-11 -28.5t-3 -20zM192 806q0 -18 -15 -31t-35 -13t-35 13t-15 31t15 31t35 13t35 -13t15 -31zM323 806q0 -18 -14.5 -31t-35.5 -13q-20 0 -34.5 13t-14.5 31t14.5 31t34.5 13q21 0 35.5 -13t14.5 -31z" />
<glyph unicode="&#xd8;" d="M369 610q22 -45 22 -85v-350q0 -40 -22 -85q-45 -90 -159 -90t-159 90q-22 45 -22 85v350q0 40 22 85q45 90 159 90t159 -90zM140 573q-12 -22 -12 -48v-246q19 55 57.5 163.5t57.5 163.5q-10 6 -33 6q-48 0 -70 -39zM280 127q11 20 11 48v269l-124 -347q22 -10 43 -10 q48 0 70 40z" />
<glyph unicode="&#xd9;" d="M210 0q-114 0 -159 90q-22 45 -22 85v525h100v-525q0 -13 4.5 -30.5t24.5 -37.5t52 -20t52 20t25 38t5 30v525h99v-525q0 -40 -22 -85q-45 -90 -159 -90zM308 769l-209 47l17 74l202 -70z" />
<glyph unicode="&#xda;" d="M210 0q-114 0 -159 90q-22 45 -22 85v525h99v-525q0 -13 5 -30.5t25 -37.5t52 -20t52 20t24.5 37.5t4.5 30.5v525h100v-525q0 -40 -22 -85q-45 -90 -159 -90zM321 816l-209 -46l-10 50l202 70z" />
<glyph unicode="&#xdb;" d="M210 0q-114 0 -159 90q-22 45 -22 85v525h99v-525q0 -13 5 -30.5t25 -37.5t52 -20t52 20t24.5 37.5t4.5 30.5v525h100v-525q0 -40 -22 -85q-45 -90 -159 -90zM91 815l119 88l118 -88l-55 -74l-63 47l-64 -47z" />
<glyph unicode="&#xdc;" d="M210 0q-114 0 -159 90q-22 45 -22 85v525h99v-525q0 -13 5 -30.5t25 -37.5t52 -20t52 20t24.5 37.5t4.5 30.5v525h100v-525q0 -40 -22 -85q-45 -90 -159 -90z" />
<glyph unicode="&#xdd;" horiz-adv-x="453" d="M333 816l-209 -46l-10 50l202 70zM317 700h107l-148 -359v-341h-99v341l-148 359h107l90 -220q15 37 45.5 110t45.5 110z" />
<glyph unicode="&#xdf;" d="M316 359q75 -55 75 -162q0 -55 -19.5 -95.5t-43 -59t-54.5 -29.5t-43.5 -12t-20.5 -1h-28v87h25l2 1h4q26 4 40 14q38 23 38 95q0 56 -27.5 82.5t-53.5 26.5h-25v87h12q21 0 47 29t26 81q0 51 -24.5 80t-46.5 29h-71v-612h-99v700h162q8 0 20.5 -1.5t43 -12t53.5 -29 t42 -59t19 -95.5q0 -89 -53 -144z" />
<glyph unicode="&#xe0;" horiz-adv-x="500" d="M348 769l-209 47l17 74l202 -70zM370 0l-47 219h-146l-47 -219h-101l150 700h142l150 -700h-101zM196 306h108l-54 251q-16 -72 -54 -251z" />
<glyph unicode="&#xe1;" horiz-adv-x="500" d="M361 816l-209 -46l-10 50l202 70zM370 0l-47 219h-146l-47 -219h-101l150 700h142l150 -700h-101zM196 306h108l-54 251q-16 -72 -54 -251z" />
<glyph unicode="&#xe2;" horiz-adv-x="500" d="M130 815l119 88l118 -88l-55 -74l-63 47l-64 -47zM370 0l-47 219h-146l-47 -219h-101l150 700h142l150 -700h-101zM196 306h108l-54 251q-16 -72 -54 -251z" />
<glyph unicode="&#xe4;" horiz-adv-x="500" d="M234 806q0 -18 -15 -31t-35 -13t-35 13t-15 31t15 31t35 13t35 -13t15 -31zM365 806q0 -18 -14.5 -31t-35.5 -13q-20 0 -34.5 13t-14.5 31t14.5 31t34.5 13q21 0 35.5 -13t14.5 -31zM370 0l-47 219h-146l-47 -219h-101l150 700h142l150 -700h-101zM196 306h108l-54 251 q-16 -72 -54 -251z" />
<glyph unicode="&#xe8;" horiz-adv-x="376" d="M286 820l-10 -50l-209 46l17 74zM347 612h-219v-218h163v-88h-163v-219h219v-87h-318v700h318v-88z" />
<glyph unicode="&#xe9;" horiz-adv-x="376" d="M286 816l-209 -46l-10 50l202 70zM347 612h-219v-218h163v-88h-163v-219h219v-87h-318v700h318v-88z" />
<glyph unicode="&#xea;" horiz-adv-x="376" d="M64 815l119 88l118 -88l-55 -74l-63 47l-64 -47zM347 612h-219v-218h163v-88h-163v-219h219v-87h-318v700h318v-88z" />
<glyph unicode="&#xeb;" horiz-adv-x="376" d="M170 806q0 -18 -15 -31t-35 -13t-35 13t-15 31t15 31t35 13t35 -13t15 -31zM301 806q0 -18 -14.5 -31t-35.5 -13q-20 0 -34.5 13t-14.5 31t14.5 31t34.5 13q21 0 35.5 -13t14.5 -31zM347 612h-219v-218h163v-88h-163v-219h219v-87h-318v700h318v-88z" />
<glyph unicode="&#xec;" horiz-adv-x="219" d="M209 769l-209 47l17 74l202 -70zM54 700h99v-700h-99v700z" />
<glyph unicode="&#xed;" horiz-adv-x="219" d="M219 816l-209 -46l-10 50l202 70zM54 700h99v-700h-99v700z" />
<glyph unicode="&#xee;" horiz-adv-x="247" d="M5 815l119 88l118 -88l-55 -74l-63 47l-64 -47zM72 700h99v-700h-99v700z" />
<glyph unicode="&#xef;" horiz-adv-x="241" d="M105 806q0 -18 -15 -31t-35 -13t-35 13t-15 31t15 31t35 13t35 -13t15 -31zM236 806q0 -18 -14.5 -31t-35.5 -13q-20 0 -34.5 13t-14.5 31t14.5 31t34.5 13q21 0 35.5 -13t14.5 -31zM71 700h99v-700h-99v700z" />
<glyph unicode="&#xf2;" d="M210 0q-114 0 -159 90q-22 45 -22 85v350q0 40 22 85q45 90 159 90t159 -90q22 -45 22 -85v-350q0 -40 -22 -85q-45 -90 -159 -90zM292 175v350q0 8 -3 20t-11 28.5t-25.5 27.5t-42.5 11q-32 0 -52 -19.5t-24.5 -37t-4.5 -30.5v-350q0 -13 4.5 -30.5t24.5 -37.5t52 -20 t52 20t25 38t5 30zM308 769l-209 47l17 74l202 -70z" />
<glyph unicode="&#xf3;" d="M210 0q-114 0 -159 90q-22 45 -22 85v350q0 40 22 85q45 90 159 90t159 -90q22 -45 22 -85v-350q0 -40 -22 -85q-45 -90 -159 -90zM128 525v-350q0 -13 5 -30.5t25 -37.5t52 -20t52 20t24.5 37.5t4.5 30.5v350q0 13 -4.5 30.5t-24.5 37t-52 19.5q-25 0 -42.5 -11 t-25.5 -27.5t-11 -28.5t-3 -20zM321 816l-209 -46l-10 50l202 70z" />
<glyph unicode="&#xf4;" d="M210 0q-114 0 -159 90q-22 45 -22 85v350q0 40 22 85q45 90 159 90t159 -90q22 -45 22 -85v-350q0 -40 -22 -85q-45 -90 -159 -90zM128 525v-350q0 -13 5 -30.5t25 -37.5t52 -20t52 20t24.5 37.5t4.5 30.5v350q0 13 -4.5 30.5t-24.5 37t-52 19.5q-25 0 -42.5 -11 t-25.5 -27.5t-11 -28.5t-3 -20zM91 815l119 88l118 -88l-55 -74l-63 47l-64 -47z" />
<glyph unicode="&#xf6;" d="M210 0q-114 0 -159 90q-22 45 -22 85v350q0 40 22 85q45 90 159 90t159 -90q22 -45 22 -85v-350q0 -40 -22 -85q-45 -90 -159 -90zM128 525v-350q0 -13 5 -30.5t25 -37.5t52 -20t52 20t24.5 37.5t4.5 30.5v350q0 13 -4.5 30.5t-24.5 37t-52 19.5q-25 0 -42.5 -11 t-25.5 -27.5t-11 -28.5t-3 -20zM192 806q0 -18 -15 -31t-35 -13t-35 13t-15 31t15 31t35 13t35 -13t15 -31zM323 806q0 -18 -14.5 -31t-35.5 -13q-20 0 -34.5 13t-14.5 31t14.5 31t34.5 13q21 0 35.5 -13t14.5 -31z" />
<glyph unicode="&#xf8;" d="M369 610q22 -45 22 -85v-350q0 -40 -22 -85q-45 -90 -159 -90t-159 90q-22 45 -22 85v350q0 40 22 85q45 90 159 90t159 -90zM140 573q-12 -22 -12 -48v-246q19 55 57.5 163.5t57.5 163.5q-10 6 -33 6q-48 0 -70 -39zM280 127q11 20 11 48v269l-124 -347q22 -10 43 -10 q48 0 70 40z" />
<glyph unicode="&#xf9;" d="M210 0q-114 0 -159 90q-22 45 -22 85v525h100v-525q0 -13 4.5 -30.5t24.5 -37.5t52 -20t52 20t25 38t5 30v525h99v-525q0 -40 -22 -85q-45 -90 -159 -90zM308 769l-209 47l17 74l202 -70z" />
<glyph unicode="&#xfa;" d="M210 0q-114 0 -159 90q-22 45 -22 85v525h99v-525q0 -13 5 -30.5t25 -37.5t52 -20t52 20t24.5 37.5t4.5 30.5v525h100v-525q0 -40 -22 -85q-45 -90 -159 -90zM321 816l-209 -46l-10 50l202 70z" />
<glyph unicode="&#xfb;" d="M210 0q-114 0 -159 90q-22 45 -22 85v525h99v-525q0 -13 5 -30.5t25 -37.5t52 -20t52 20t24.5 37.5t4.5 30.5v525h100v-525q0 -40 -22 -85q-45 -90 -159 -90zM91 815l119 88l118 -88l-55 -74l-63 47l-64 -47z" />
<glyph unicode="&#xfc;" d="M210 0q-114 0 -159 90q-22 45 -22 85v525h99v-525q0 -13 5 -30.5t25 -37.5t52 -20t52 20t24.5 37.5t4.5 30.5v525h100v-525q0 -40 -22 -85q-45 -90 -159 -90z" />
<glyph unicode="&#xfd;" horiz-adv-x="453" d="M333 816l-209 -46l-10 50l202 70zM317 700h107l-148 -359v-341h-99v341l-148 359h107l90 -220q15 37 45.5 110t45.5 110z" />
<glyph unicode="&#xff;" horiz-adv-x="453" d="M208 806q0 -18 -15 -31t-35 -13t-35 13t-15 31t15 31t35 13t35 -13t15 -31zM339 806q0 -18 -14.5 -31t-35.5 -13q-20 0 -34.5 13t-14.5 31t14.5 31t34.5 13q21 0 35.5 -13t14.5 -31zM317 700h107l-148 -359v-341h-99v341l-148 359h107l90 -220q15 37 45.5 110t45.5 110z " />
<glyph unicode="&#x152;" horiz-adv-x="595" d="M566 612h-241v-218h175v-88h-175v-219h241v-87h-356q-114 0 -159 90q-22 45 -22 85v350q0 40 22 85q45 90 159 90h356v-88zM226 87v525h-16q-25 0 -42.5 -11t-25.5 -27.5t-11 -28.5t-3 -20v-350q0 -13 5 -30.5t25 -37.5t52 -20h16z" />
<glyph unicode="&#x178;" horiz-adv-x="453" d="M208 806q0 -18 -15 -31t-35 -13t-35 13t-15 31t15 31t35 13t35 -13t15 -31zM339 806q0 -18 -14.5 -31t-35.5 -13q-20 0 -34.5 13t-14.5 31t14.5 31t34.5 13q21 0 35.5 -13t14.5 -31zM317 700h107l-148 -359v-341h-99v341l-148 359h107l90 -220q15 37 45.5 110t45.5 110z " />
<glyph unicode="&#x2013;" horiz-adv-x="503" d="M474 394v-88h-445v88h445z" />
<glyph unicode="&#x2020;" d="M391 525v-88h-131v-437h-100v437h-131v88h131v175h100v-175h131z" />
<glyph unicode="&#x2021;" d="M391 437h-131v-175h131v-87h-131v-175h-100v175h-131v87h131v175h-131v88h131v175h100v-175h131v-88z" />
<glyph unicode="&#x2022;" horiz-adv-x="201" d="M172 350q0 -27 -21 -46.5t-50 -19.5q-30 0 -51 19.5t-21 46.5t21 46.5t51 19.5q29 0 50 -19.5t21 -46.5z" />
<glyph unicode="&#x20ac;" horiz-adv-x="464" d="M435 481h-100v44q0 12 -4.5 29.5t-24.5 37.5t-52 20q-25 0 -43 -11t-25.5 -27.5t-10.5 -28.5t-3 -20v-66h131v-87h-131v-44h131v-87h-131v-66q0 -8 3 -20t10.5 -28.5t25.5 -28t43 -11.5q24 0 41.5 11.5t25.5 28t11 28.5t3 20v44h100v-44q0 -40 -22 -85q-45 -90 -159 -90 q-113 0 -159 90q-22 44 -22 85v66h-44v87h44v44h-44v87h44v66q0 41 22 85q46 90 159 90q114 0 159 -90q22 -45 22 -85v-44z" />
<glyph unicode="&#x25fc;" horiz-adv-x="700" d="M0 700h700v-700h-700v700z" />
<glyph horiz-adv-x="157" d="M74 240q19 0 32 -13t13 -31t-13 -31t-32 -13q-18 0 -31.5 13t-13.5 31t13.5 31t31.5 13zM74 546q19 0 32 -13t13 -31t-13 -31t-32 -13q-18 0 -31.5 13t-13.5 31t13.5 31t31.5 13z" />
<glyph horiz-adv-x="181" d="M85 203h79l-71 -127l-51 3zM87 546q19 0 32 -13t13 -31t-13 -31t-32 -13q-18 0 -31.5 13t-13.5 31t13.5 31t31.5 13z" />
</font>
</defs>
</svg>
